<svg width="26" height="26" viewBox="0 0 26 26" fill="none" xmlns="http://www.w3.org/2000/svg">
<g clip-path="url(#clip0_44_2)">
<path d="M17.8106 21.7173H3.38189C2.51511 21.7173 1.8125 21.0147 1.8125 20.1479V1.56939C1.81245 0.70266 2.51511 0 3.38189 0H17.8107C18.6775 0 19.3801 0.70266 19.3801 1.56939V20.1479C19.3801 21.0147 18.6774 21.7173 17.8106 21.7173Z" fill="#F7F6F7"/>
<path d="M17.8116 0H16.2422C17.109 0 17.8116 0.70266 17.8116 1.56939V20.1479C17.8116 21.0147 17.1089 21.7173 16.2422 21.7173H17.8116C18.6784 21.7173 19.381 21.0146 19.381 20.1479V1.56939C19.381 0.70266 18.6784 0 17.8116 0Z" fill="#EDEBED"/>
<path d="M19.1469 26H1.56939C0.70266 26 0 25.2973 0 24.4306V10.9859C0 10.1191 0.70266 9.4165 1.56939 9.4165H9.22513C9.84928 9.4165 10.3933 9.84129 10.5447 10.4468L10.8142 11.525C10.9656 12.1306 11.5096 12.5553 12.1338 12.5553H19.1468C20.0136 12.5553 20.7162 13.258 20.7162 14.1247V24.4305C20.7163 25.2973 20.0137 26 19.1469 26Z" fill="#0085FF"/>
<path d="M19.1474 12.5553H17.578C18.4448 12.5553 19.1474 13.258 19.1474 14.1247V24.4305C19.1474 25.2973 18.4447 25.9999 17.578 25.9999H19.1474C20.0142 25.9999 20.7168 25.2973 20.7168 24.4305V14.1247C20.7168 13.258 20.0142 12.5553 19.1474 12.5553ZM8.9758 10.4468L9.24535 11.525C9.39673 12.1306 9.94075 12.5553 10.5649 12.5553H12.1343C11.5101 12.5553 10.9661 12.1305 10.8147 11.525L10.5452 10.4468C10.3938 9.84124 9.8498 9.4165 9.22564 9.4165H7.65625C8.2804 9.4165 8.82442 9.84124 8.9758 10.4468Z" fill="#005DB2"/>
<path d="M15.9485 2.74646H4.5857C4.48164 2.74646 4.38185 2.70513 4.30827 2.63155C4.23469 2.55797 4.19336 2.45818 4.19336 2.35413C4.19336 2.25007 4.23469 2.15028 4.30827 2.0767C4.38185 2.00313 4.48164 1.96179 4.5857 1.96179H15.9485C16.1652 1.96179 16.3408 2.13744 16.3408 2.35413C16.3408 2.57081 16.1652 2.74646 15.9485 2.74646ZM13.5944 5.10058H4.5857C4.48164 5.10058 4.38185 5.05925 4.30827 4.98567C4.23469 4.91209 4.19336 4.8123 4.19336 4.70825C4.19336 4.60419 4.23469 4.5044 4.30827 4.43082C4.38185 4.35724 4.48164 4.31591 4.5857 4.31591H13.5944C13.6459 4.3159 13.6969 4.32605 13.7445 4.34576C13.7921 4.36547 13.8354 4.39437 13.8718 4.43081C13.9083 4.46724 13.9372 4.51049 13.9569 4.5581C13.9766 4.6057 13.9867 4.65672 13.9867 4.70825C13.9867 4.75977 13.9766 4.81079 13.9569 4.85839C13.9372 4.906 13.9083 4.94925 13.8718 4.98568C13.8354 5.02212 13.7921 5.05102 13.7445 5.07073C13.6969 5.09044 13.6459 5.10059 13.5944 5.10058ZM12.8097 7.4547H4.5857C4.48164 7.4547 4.38185 7.41336 4.30827 7.33979C4.23469 7.26621 4.19336 7.16642 4.19336 7.06236C4.19336 6.95831 4.23469 6.85852 4.30827 6.78494C4.38185 6.71136 4.48164 6.67003 4.5857 6.67003H12.8097C12.9137 6.67003 13.0135 6.71136 13.0871 6.78494C13.1607 6.85852 13.202 6.95831 13.202 7.06236C13.202 7.16642 13.1607 7.26621 13.0871 7.33979C13.0135 7.41336 12.9137 7.4547 12.8097 7.4547ZM17.006 16.5227L15.2447 15.5058L17.3821 11.8038L19.1435 12.8207L17.006 16.5227Z" fill="#A198A4"/>
<path d="M12.2358 22.7503C13.0794 23.2374 14.1582 22.9484 14.6453 22.1047L17.7683 16.6956C17.9745 16.3383 17.8521 15.8815 17.4949 15.6752L15.7335 14.6583C15.3762 14.452 14.9194 14.5745 14.7131 14.9317L11.5902 20.3408C11.103 21.1845 11.3921 22.2633 12.2358 22.7503Z" fill="#655E68"/>
<path d="M17.4936 15.6752L15.7322 14.6583C15.3749 14.452 14.9181 14.5745 14.7118 14.9317L14.693 14.9644L15.9242 15.6752C16.2815 15.8815 16.4039 16.3383 16.1976 16.6956L13.0747 22.1047C12.9015 22.4056 12.6431 22.6483 12.332 22.8023C13.1596 23.2142 14.1755 22.9162 14.6441 22.1047L17.767 16.6956C17.9733 16.3383 17.8509 15.8815 17.4936 15.6752Z" fill="#544F57"/>
<path d="M16.2285 13.8005C16.7594 14.2286 17.3529 14.5725 17.9883 14.8202L19.143 12.8202L17.3816 11.8033L16.2285 13.8005Z" fill="#8B808E"/>
<path d="M25.5352 10.836C26.7648 7.99466 25.4582 4.69455 22.6168 3.46499C19.7755 2.23544 16.4754 3.54204 15.2458 6.38338C14.0163 9.22472 15.3229 12.5248 18.1642 13.7544C21.0056 14.9839 24.3057 13.6773 25.5352 10.836Z" fill="#A4CCFF"/>
<path d="M20.3941 3.01306C20.1278 3.01306 19.8659 3.03216 19.6094 3.06826C22.3302 3.4511 24.4304 5.7941 24.4304 8.61885C24.4304 11.4436 22.3302 13.7866 19.6094 14.1694C19.8693 14.2061 20.1316 14.2245 20.3941 14.2246C23.4851 14.2246 25.9998 11.7099 25.9998 8.61885C25.9998 5.5278 23.4851 3.01306 20.3941 3.01306Z" fill="#8BB3EA"/>
<path d="M21.231 11.973C23.0888 11.5118 24.221 9.63197 23.7599 7.7742C23.2988 5.91642 21.4189 4.78423 19.5611 5.24536C17.7033 5.7065 16.5711 7.58635 17.0322 9.44412C17.4933 11.3019 19.3732 12.4341 21.231 11.973Z" fill="#E6ECF8"/>
<path d="M20.3941 5.15283C20.1241 5.15283 19.8617 5.18488 19.6094 5.24353C21.1436 5.60016 22.2906 6.97755 22.2906 8.61875C22.2906 10.2599 21.1436 11.6373 19.6094 11.9939C19.8666 12.054 20.1299 12.0844 20.3941 12.0846C22.3052 12.0846 23.86 10.5299 23.86 8.61875C23.86 6.7076 22.3052 5.15283 20.3941 5.15283Z" fill="#D7E1F3"/>
</g>
<defs>
<clipPath id="clip0_44_2">
<rect width="26" height="26" fill="white"/>
</clipPath>
</defs>
</svg>
