<svg width="100" height="26" viewBox="0 0 100 26" fill="none" xmlns="http://www.w3.org/2000/svg">
<g clip-path="url(#clip0_44_19)">
<path d="M17.8106 21.7173H3.38189C2.51511 21.7173 1.8125 21.0147 1.8125 20.1479V1.56939C1.81245 0.70266 2.51511 0 3.38189 0H17.8107C18.6775 0 19.3801 0.70266 19.3801 1.56939V20.1479C19.3801 21.0147 18.6774 21.7173 17.8106 21.7173Z" fill="#F7F6F7"/>
<path d="M17.8116 0H16.2422C17.109 0 17.8116 0.70266 17.8116 1.56939V20.1479C17.8116 21.0147 17.1089 21.7173 16.2422 21.7173H17.8116C18.6784 21.7173 19.381 21.0146 19.381 20.1479V1.56939C19.381 0.70266 18.6784 0 17.8116 0Z" fill="#EDEBED"/>
<path d="M19.1469 26H1.56939C0.70266 26 0 25.2973 0 24.4306V10.9859C0 10.1191 0.70266 9.4165 1.56939 9.4165H9.22513C9.84928 9.4165 10.3933 9.84129 10.5447 10.4468L10.8142 11.525C10.9656 12.1306 11.5096 12.5553 12.1338 12.5553H19.1468C20.0136 12.5553 20.7162 13.258 20.7162 14.1247V24.4305C20.7163 25.2973 20.0137 26 19.1469 26Z" fill="#0085FF"/>
<path d="M19.1474 12.5553H17.578C18.4448 12.5553 19.1474 13.258 19.1474 14.1247V24.4305C19.1474 25.2973 18.4447 25.9999 17.578 25.9999H19.1474C20.0142 25.9999 20.7168 25.2973 20.7168 24.4305V14.1247C20.7168 13.258 20.0142 12.5553 19.1474 12.5553ZM8.9758 10.4468L9.24535 11.525C9.39673 12.1306 9.94075 12.5553 10.5649 12.5553H12.1343C11.5101 12.5553 10.9661 12.1305 10.8147 11.525L10.5452 10.4468C10.3938 9.84124 9.8498 9.4165 9.22564 9.4165H7.65625C8.2804 9.4165 8.82442 9.84124 8.9758 10.4468Z" fill="#005DB2"/>
<path d="M15.9485 2.74646H4.5857C4.48164 2.74646 4.38185 2.70513 4.30827 2.63155C4.23469 2.55797 4.19336 2.45818 4.19336 2.35413C4.19336 2.25007 4.23469 2.15028 4.30827 2.0767C4.38185 2.00313 4.48164 1.96179 4.5857 1.96179H15.9485C16.1652 1.96179 16.3408 2.13744 16.3408 2.35413C16.3408 2.57081 16.1652 2.74646 15.9485 2.74646ZM13.5944 5.10058H4.5857C4.48164 5.10058 4.38185 5.05925 4.30827 4.98567C4.23469 4.91209 4.19336 4.8123 4.19336 4.70825C4.19336 4.60419 4.23469 4.5044 4.30827 4.43082C4.38185 4.35724 4.48164 4.31591 4.5857 4.31591H13.5944C13.6459 4.3159 13.6969 4.32605 13.7445 4.34576C13.7921 4.36547 13.8354 4.39437 13.8718 4.43081C13.9083 4.46724 13.9372 4.51049 13.9569 4.5581C13.9766 4.6057 13.9867 4.65672 13.9867 4.70825C13.9867 4.75977 13.9766 4.81079 13.9569 4.85839C13.9372 4.906 13.9083 4.94925 13.8718 4.98568C13.8354 5.02212 13.7921 5.05102 13.7445 5.07073C13.6969 5.09044 13.6459 5.10059 13.5944 5.10058ZM12.8097 7.4547H4.5857C4.48164 7.4547 4.38185 7.41336 4.30827 7.33979C4.23469 7.26621 4.19336 7.16642 4.19336 7.06236C4.19336 6.95831 4.23469 6.85852 4.30827 6.78494C4.38185 6.71136 4.48164 6.67003 4.5857 6.67003H12.8097C12.9137 6.67003 13.0135 6.71136 13.0871 6.78494C13.1607 6.85852 13.202 6.95831 13.202 7.06236C13.202 7.16642 13.1607 7.26621 13.0871 7.33979C13.0135 7.41336 12.9137 7.4547 12.8097 7.4547ZM17.006 16.5227L15.2447 15.5058L17.3821 11.8038L19.1435 12.8207L17.006 16.5227Z" fill="#A198A4"/>
<path d="M12.2358 22.7503C13.0794 23.2374 14.1582 22.9484 14.6453 22.1047L17.7683 16.6956C17.9745 16.3383 17.8521 15.8815 17.4949 15.6752L15.7335 14.6583C15.3762 14.452 14.9194 14.5745 14.7131 14.9317L11.5902 20.3408C11.103 21.1845 11.3921 22.2633 12.2358 22.7503Z" fill="#655E68"/>
<path d="M17.4936 15.6752L15.7322 14.6583C15.3749 14.452 14.9181 14.5745 14.7118 14.9317L14.693 14.9644L15.9242 15.6752C16.2815 15.8815 16.4039 16.3383 16.1976 16.6956L13.0747 22.1047C12.9015 22.4056 12.6431 22.6483 12.332 22.8023C13.1596 23.2142 14.1755 22.9162 14.6441 22.1047L17.767 16.6956C17.9733 16.3383 17.8509 15.8815 17.4936 15.6752Z" fill="#544F57"/>
<path d="M16.2285 13.8005C16.7594 14.2286 17.3529 14.5725 17.9883 14.8202L19.143 12.8202L17.3816 11.8033L16.2285 13.8005Z" fill="#8B808E"/>
<path d="M25.5352 10.836C26.7648 7.99466 25.4582 4.69455 22.6168 3.46499C19.7755 2.23544 16.4754 3.54204 15.2458 6.38338C14.0163 9.22472 15.3229 12.5248 18.1642 13.7544C21.0056 14.9839 24.3057 13.6773 25.5352 10.836Z" fill="#A4CCFF"/>
<path d="M20.3941 3.01306C20.1278 3.01306 19.8659 3.03216 19.6094 3.06826C22.3302 3.4511 24.4304 5.7941 24.4304 8.61885C24.4304 11.4436 22.3302 13.7866 19.6094 14.1694C19.8693 14.2061 20.1316 14.2245 20.3941 14.2246C23.4851 14.2246 25.9998 11.7099 25.9998 8.61885C25.9998 5.5278 23.4851 3.01306 20.3941 3.01306Z" fill="#8BB3EA"/>
<path d="M21.231 11.973C23.0888 11.5118 24.221 9.63197 23.7599 7.7742C23.2988 5.91642 21.4189 4.78423 19.5611 5.24536C17.7033 5.7065 16.5711 7.58635 17.0322 9.44412C17.4933 11.3019 19.3732 12.4341 21.231 11.973Z" fill="#E6ECF8"/>
<path d="M20.3941 5.15283C20.1241 5.15283 19.8617 5.18488 19.6094 5.24353C21.1436 5.60016 22.2906 6.97755 22.2906 8.61875C22.2906 10.2599 21.1436 11.6373 19.6094 11.9939C19.8666 12.054 20.1299 12.0844 20.3941 12.0846C22.3052 12.0846 23.86 10.5299 23.86 8.61875C23.86 6.7076 22.3052 5.15283 20.3941 5.15283Z" fill="#D7E1F3"/>
</g>
<path d="M34.7173 3.72727H36.3295L38.4886 8.99716H38.5739L40.733 3.72727H42.3452V11H41.081V6.00355H41.0135L39.0036 10.9787H38.0589L36.049 5.9929H35.9815V11H34.7173V3.72727ZM45.2926 11.1101C44.947 11.1101 44.6357 11.0485 44.3587 10.9254C44.084 10.8 43.8662 10.6153 43.7053 10.3714C43.5466 10.1276 43.4673 9.82694 43.4673 9.46946C43.4673 9.1617 43.5241 8.9072 43.6378 8.70597C43.7514 8.50473 43.9065 8.34375 44.103 8.22301C44.2995 8.10227 44.5208 8.01113 44.767 7.94957C45.0156 7.88565 45.2725 7.83949 45.5376 7.81108C45.8572 7.77794 46.1165 7.74834 46.3153 7.7223C46.5142 7.69389 46.6586 7.65128 46.7486 7.59446C46.8409 7.53527 46.8871 7.44413 46.8871 7.32102V7.29972C46.8871 7.0322 46.8078 6.82505 46.6491 6.67827C46.4905 6.53149 46.2621 6.4581 45.9638 6.4581C45.6489 6.4581 45.3991 6.52675 45.2145 6.66406C45.0322 6.80137 44.9091 6.96354 44.8452 7.15057L43.6449 6.98011C43.7396 6.64867 43.8958 6.37169 44.1136 6.14915C44.3314 5.92424 44.5978 5.75616 44.9126 5.64489C45.2275 5.53125 45.5755 5.47443 45.9567 5.47443C46.2195 5.47443 46.4811 5.50521 46.7415 5.56676C47.0019 5.62831 47.2398 5.73011 47.4553 5.87216C47.6707 6.01184 47.8435 6.20241 47.9737 6.44389C48.1063 6.68537 48.1726 6.98722 48.1726 7.34943V11H46.9368V10.2507H46.8942C46.8161 10.4022 46.706 10.5443 46.5639 10.6768C46.4242 10.8071 46.2479 10.9124 46.0348 10.9929C45.8241 11.071 45.5767 11.1101 45.2926 11.1101ZM45.6264 10.1655C45.8845 10.1655 46.1082 10.1146 46.2976 10.0128C46.487 9.90862 46.6326 9.77131 46.7344 9.60085C46.8385 9.4304 46.8906 9.24455 46.8906 9.04332V8.40057C46.8504 8.43371 46.7817 8.46449 46.6847 8.4929C46.59 8.52131 46.4834 8.54616 46.3651 8.56747C46.2467 8.58878 46.1295 8.60772 46.0135 8.62429C45.8975 8.64086 45.7969 8.65507 45.7116 8.6669C45.5199 8.69294 45.3482 8.73556 45.1967 8.79474C45.0452 8.85393 44.9257 8.93679 44.8381 9.04332C44.7505 9.14749 44.7067 9.28243 44.7067 9.44815C44.7067 9.6849 44.7931 9.86364 44.9659 9.98438C45.1387 10.1051 45.3589 10.1655 45.6264 10.1655ZM50.5554 3.72727V4.4517C50.5554 4.66004 50.5152 4.87666 50.4347 5.10156C50.3565 5.3241 50.2488 5.53717 50.1115 5.74077C49.9742 5.942 49.8179 6.11482 49.6428 6.25923L49.0462 5.87216C49.1764 5.67566 49.29 5.46378 49.3871 5.23651C49.4841 5.00687 49.5327 4.74763 49.5327 4.45881V3.72727H50.5554ZM52.8894 3.72727V11H51.6039V3.72727H52.8894ZM57.6879 8.70597V5.54545H58.9734V11H57.7269V10.0305H57.6701C57.547 10.3359 57.3446 10.5857 57.0629 10.7798C56.7835 10.974 56.439 11.071 56.0295 11.071C55.672 11.071 55.3559 10.9917 55.0813 10.8331C54.8091 10.6721 54.596 10.4389 54.4421 10.1335C54.2882 9.82576 54.2113 9.45407 54.2113 9.01847V5.54545H55.4968V8.8196C55.4968 9.16525 55.5915 9.43987 55.7809 9.64347C55.9703 9.84706 56.2189 9.94886 56.5266 9.94886C56.716 9.94886 56.8995 9.9027 57.0771 9.81037C57.2546 9.71804 57.4002 9.58073 57.5138 9.39844C57.6299 9.21378 57.6879 8.98295 57.6879 8.70597ZM60.2953 11V5.54545H61.524V6.4723H61.5879C61.7015 6.1598 61.8897 5.91596 62.1525 5.74077C62.4153 5.56321 62.729 5.47443 63.0936 5.47443C63.4629 5.47443 63.7742 5.56439 64.0275 5.74432C64.2832 5.92187 64.4631 6.16454 64.5673 6.4723H64.6241C64.7449 6.16927 64.9484 5.92779 65.2349 5.74787C65.5237 5.56558 65.8658 5.47443 66.2612 5.47443C66.7631 5.47443 67.1726 5.63305 67.4899 5.95028C67.8071 6.26752 67.9657 6.73035 67.9657 7.33878V11H66.6767V7.53764C66.6767 7.1991 66.5867 6.9517 66.4068 6.79545C66.2269 6.63684 66.0067 6.55753 65.7463 6.55753C65.4361 6.55753 65.1935 6.65459 65.0183 6.84872C64.8455 7.04048 64.7591 7.29025 64.7591 7.59801V11H63.4984V7.48438C63.4984 7.20265 63.4132 6.97775 63.2427 6.80966C63.0746 6.64157 62.8545 6.55753 62.5822 6.55753C62.3975 6.55753 62.2295 6.60488 62.0779 6.69957C61.9264 6.7919 61.8057 6.9233 61.7157 7.09375C61.6258 7.26184 61.5808 7.45833 61.5808 7.68324V11H60.2953ZM71.6491 11.1065C71.1165 11.1065 70.6548 10.9893 70.2642 10.755C69.8736 10.5206 69.5705 10.1927 69.3551 9.77131C69.142 9.34991 69.0355 8.85748 69.0355 8.29403C69.0355 7.73059 69.142 7.23698 69.3551 6.81321C69.5705 6.38944 69.8736 6.06037 70.2642 5.82599C70.6548 5.59162 71.1165 5.47443 71.6491 5.47443C72.1818 5.47443 72.6435 5.59162 73.0341 5.82599C73.4247 6.06037 73.7266 6.38944 73.9396 6.81321C74.1551 7.23698 74.2628 7.73059 74.2628 8.29403C74.2628 8.85748 74.1551 9.34991 73.9396 9.77131C73.7266 10.1927 73.4247 10.5206 73.0341 10.755C72.6435 10.9893 72.1818 11.1065 71.6491 11.1065ZM71.6562 10.0767C71.9451 10.0767 72.1866 9.9974 72.3807 9.83878C72.5748 9.67779 72.7192 9.46236 72.8139 9.19247C72.911 8.92259 72.9595 8.62192 72.9595 8.29048C72.9595 7.95668 72.911 7.65483 72.8139 7.38494C72.7192 7.11269 72.5748 6.89607 72.3807 6.73509C72.1866 6.5741 71.9451 6.49361 71.6562 6.49361C71.3603 6.49361 71.1141 6.5741 70.9176 6.73509C70.7235 6.89607 70.5779 7.11269 70.4808 7.38494C70.3861 7.65483 70.3388 7.95668 70.3388 8.29048C70.3388 8.62192 70.3861 8.92259 70.4808 9.19247C70.5779 9.46236 70.7235 9.67779 70.9176 9.83878C71.1141 9.9974 71.3603 10.0767 71.6562 10.0767ZM78.0776 5.54545V6.53977H74.9419V5.54545H78.0776ZM75.7161 4.23864H77.0016V9.35938C77.0016 9.5322 77.0276 9.66477 77.0797 9.7571C77.1342 9.84706 77.2052 9.90862 77.2928 9.94176C77.3804 9.97491 77.4775 9.99148 77.584 9.99148C77.6645 9.99148 77.7379 9.98556 77.8042 9.97372C77.8728 9.96188 77.9249 9.95123 77.9604 9.94176L78.177 10.9467C78.1084 10.9704 78.0101 10.9964 77.8823 11.0249C77.7568 11.0533 77.6029 11.0698 77.4206 11.0746C77.0987 11.084 76.8087 11.0355 76.5506 10.929C76.2926 10.8201 76.0878 10.652 75.9363 10.4247C75.7871 10.1974 75.7137 9.91335 75.7161 9.57244V4.23864ZM80.5554 3.72727V11H79.2699V3.72727H80.5554ZM83.4469 11.1101C83.1013 11.1101 82.79 11.0485 82.513 10.9254C82.2383 10.8 82.0205 10.6153 81.8596 10.3714C81.7009 10.1276 81.6216 9.82694 81.6216 9.46946C81.6216 9.1617 81.6784 8.9072 81.7921 8.70597C81.9057 8.50473 82.0608 8.34375 82.2573 8.22301C82.4538 8.10227 82.6751 8.01113 82.9213 7.94957C83.1699 7.88565 83.4268 7.83949 83.6919 7.81108C84.0115 7.77794 84.2708 7.74834 84.4696 7.7223C84.6685 7.69389 84.8129 7.65128 84.9029 7.59446C84.9952 7.53527 85.0414 7.44413 85.0414 7.32102V7.29972C85.0414 7.0322 84.9621 6.82505 84.8034 6.67827C84.6448 6.53149 84.4164 6.4581 84.1181 6.4581C83.8032 6.4581 83.5534 6.52675 83.3688 6.66406C83.1865 6.80137 83.0634 6.96354 82.9995 7.15057L81.7992 6.98011C81.8939 6.64867 82.0501 6.37169 82.2679 6.14915C82.4857 5.92424 82.7521 5.75616 83.0669 5.64489C83.3818 5.53125 83.7298 5.47443 84.111 5.47443C84.3738 5.47443 84.6354 5.50521 84.8958 5.56676C85.1562 5.62831 85.3941 5.73011 85.6096 5.87216C85.825 6.01184 85.9978 6.20241 86.128 6.44389C86.2606 6.68537 86.3269 6.98722 86.3269 7.34943V11H85.0911V10.2507H85.0485C84.9703 10.4022 84.8603 10.5443 84.7182 10.6768C84.5785 10.8071 84.4022 10.9124 84.1891 10.9929C83.9784 11.071 83.731 11.1101 83.4469 11.1101ZM83.7807 10.1655C84.0388 10.1655 84.2625 10.1146 84.4519 10.0128C84.6413 9.90862 84.7869 9.77131 84.8887 9.60085C84.9928 9.4304 85.0449 9.24455 85.0449 9.04332V8.40057C85.0047 8.43371 84.936 8.46449 84.839 8.4929C84.7443 8.52131 84.6377 8.54616 84.5194 8.56747C84.401 8.58878 84.2838 8.60772 84.1678 8.62429C84.0518 8.64086 83.9512 8.65507 83.8659 8.6669C83.6742 8.69294 83.5025 8.73556 83.351 8.79474C83.1995 8.85393 83.08 8.93679 82.9924 9.04332C82.9048 9.14749 82.861 9.28243 82.861 9.44815C82.861 9.6849 82.9474 9.86364 83.1202 9.98438C83.293 10.1051 83.5132 10.1655 83.7807 10.1655ZM87.6195 11V5.54545H88.8659V6.45455H88.9228C89.0222 6.13968 89.1926 5.89702 89.4341 5.72656C89.678 5.55374 89.9561 5.46733 90.2686 5.46733C90.3397 5.46733 90.419 5.47088 90.5066 5.47798C90.5965 5.48272 90.6711 5.491 90.7303 5.50284V6.68537C90.6758 6.66643 90.5894 6.64986 90.4711 6.63565C90.3551 6.61908 90.2426 6.6108 90.1337 6.6108C89.8993 6.6108 89.6886 6.66169 89.5016 6.76349C89.3169 6.86293 89.1713 7.00142 89.0648 7.17898C88.9583 7.35653 88.905 7.56132 88.905 7.79332V11H87.6195ZM92.8699 7.80398V11H91.5843V5.54545H92.813V6.4723H92.877C93.0024 6.1669 93.2025 5.92424 93.4771 5.74432C93.7541 5.56439 94.0962 5.47443 94.5034 5.47443C94.8798 5.47443 95.2077 5.55492 95.487 5.71591C95.7688 5.87689 95.9866 6.11009 96.1404 6.41548C96.2967 6.72088 96.3736 7.09138 96.3713 7.52699V11H95.0858V7.72585C95.0858 7.36127 94.9911 7.07599 94.8017 6.87003C94.6146 6.66406 94.3554 6.56108 94.024 6.56108C93.7991 6.56108 93.599 6.6108 93.4238 6.71023C93.251 6.80729 93.1149 6.94815 93.0154 7.13281C92.9184 7.31747 92.8699 7.54119 92.8699 7.80398ZM97.6781 11V5.54545H98.9636V11H97.6781ZM98.3244 4.77131C98.1208 4.77131 97.9456 4.70384 97.7988 4.56889C97.652 4.43158 97.5787 4.26705 97.5787 4.07528C97.5787 3.88116 97.652 3.71662 97.7988 3.58168C97.9456 3.44437 98.1208 3.37571 98.3244 3.37571C98.5304 3.37571 98.7056 3.44437 98.85 3.58168C98.9967 3.71662 99.0701 3.88116 99.0701 4.07528C99.0701 4.26705 98.9967 4.43158 98.85 4.56889C98.7056 4.70384 98.5304 4.77131 98.3244 4.77131ZM37.4268 20.5568H38.62L39.3267 21.473L39.831 22.0696L41.0419 23.625H39.7635L38.9396 22.581L38.5881 22.0838L37.4268 20.5568ZM41.2159 19.3636C41.2159 20.1473 41.0691 20.8184 40.7756 21.3771C40.4844 21.9335 40.0866 22.3596 39.5824 22.6555C39.0805 22.9515 38.5111 23.0994 37.8743 23.0994C37.2375 23.0994 36.6669 22.9515 36.1626 22.6555C35.6607 22.3572 35.263 21.9299 34.9695 21.3736C34.6783 20.8149 34.5327 20.1449 34.5327 19.3636C34.5327 18.58 34.6783 17.91 34.9695 17.3537C35.263 16.795 35.6607 16.3677 36.1626 16.0717C36.6669 15.7758 37.2375 15.6278 37.8743 15.6278C38.5111 15.6278 39.0805 15.7758 39.5824 16.0717C40.0866 16.3677 40.4844 16.795 40.7756 17.3537C41.0691 17.91 41.2159 18.58 41.2159 19.3636ZM39.8913 19.3636C39.8913 18.812 39.8049 18.3468 39.6321 17.968C39.4616 17.5869 39.2249 17.2992 38.9219 17.1051C38.6188 16.9086 38.2696 16.8104 37.8743 16.8104C37.4789 16.8104 37.1297 16.9086 36.8267 17.1051C36.5237 17.2992 36.2857 17.5869 36.1129 17.968C35.9425 18.3468 35.8572 18.812 35.8572 19.3636C35.8572 19.9152 35.9425 20.3816 36.1129 20.7628C36.2857 21.1416 36.5237 21.4292 36.8267 21.6257C37.1297 21.8198 37.4789 21.9169 37.8743 21.9169C38.2696 21.9169 38.6188 21.8198 38.9219 21.6257C39.2249 21.4292 39.4616 21.1416 39.6321 20.7628C39.8049 20.3816 39.8913 19.9152 39.8913 19.3636ZM42.4144 23V17.5455H43.6999V23H42.4144ZM43.0607 16.7713C42.8571 16.7713 42.6819 16.7038 42.5352 16.5689C42.3884 16.4316 42.315 16.267 42.315 16.0753C42.315 15.8812 42.3884 15.7166 42.5352 15.5817C42.6819 15.4444 42.8571 15.3757 43.0607 15.3757C43.2667 15.3757 43.4419 15.4444 43.5863 15.5817C43.7331 15.7166 43.8065 15.8812 43.8065 16.0753C43.8065 16.267 43.7331 16.4316 43.5863 16.5689C43.4419 16.7038 43.2667 16.7713 43.0607 16.7713ZM47.046 23.0959C46.6175 23.0959 46.234 22.9858 45.8954 22.7656C45.5569 22.5455 45.2894 22.2259 45.0929 21.8068C44.8964 21.3878 44.7981 20.8788 44.7981 20.2798C44.7981 19.6738 44.8975 19.1624 45.0964 18.7457C45.2976 18.3267 45.5687 18.0107 45.9096 17.7976C46.2505 17.5821 46.6305 17.4744 47.0495 17.4744C47.3691 17.4744 47.6319 17.5289 47.8379 17.6378C48.0439 17.7443 48.2072 17.8733 48.3279 18.0249C48.4487 18.174 48.5422 18.3149 48.6085 18.4474H48.6618V15.7273H49.9508V23H48.6866V22.1406H48.6085C48.5422 22.2732 48.4463 22.4141 48.3208 22.5632C48.1954 22.71 48.0297 22.8355 47.8237 22.9396C47.6177 23.0438 47.3585 23.0959 47.046 23.0959ZM47.4047 22.0412C47.6769 22.0412 47.9089 21.9678 48.1007 21.821C48.2924 21.6719 48.438 21.4647 48.5375 21.1996C48.6369 20.9344 48.6866 20.6255 48.6866 20.2727C48.6866 19.92 48.6369 19.6134 48.5375 19.353C48.4404 19.0926 48.296 18.8902 48.1042 18.7457C47.9148 18.6013 47.6816 18.5291 47.4047 18.5291C47.1182 18.5291 46.8791 18.6037 46.6873 18.7528C46.4956 18.902 46.3511 19.108 46.2541 19.3707C46.157 19.6335 46.1085 19.9342 46.1085 20.2727C46.1085 20.6136 46.157 20.9179 46.2541 21.1854C46.3535 21.4505 46.4991 21.66 46.6909 21.8139C46.885 21.9654 47.1229 22.0412 47.4047 22.0412ZM51.3207 23V17.5455H52.6062V23H51.3207ZM51.967 16.7713C51.7634 16.7713 51.5882 16.7038 51.4414 16.5689C51.2946 16.4316 51.2212 16.267 51.2212 16.0753C51.2212 15.8812 51.2946 15.7166 51.4414 15.5817C51.5882 15.4444 51.7634 15.3757 51.967 15.3757C52.1729 15.3757 52.3481 15.4444 52.4925 15.5817C52.6393 15.7166 52.7127 15.8812 52.7127 16.0753C52.7127 16.267 52.6393 16.4316 52.4925 16.5689C52.3481 16.7038 52.1729 16.7713 51.967 16.7713ZM53.9281 23V17.5455H55.1745V18.4545H55.2314C55.3308 18.1397 55.5012 17.897 55.7427 17.7266C55.9866 17.5537 56.2647 17.4673 56.5772 17.4673C56.6483 17.4673 56.7276 17.4709 56.8152 17.478C56.9051 17.4827 56.9797 17.491 57.0389 17.5028V18.6854C56.9844 18.6664 56.898 18.6499 56.7797 18.6357C56.6636 18.6191 56.5512 18.6108 56.4423 18.6108C56.2079 18.6108 55.9972 18.6617 55.8102 18.7635C55.6255 18.8629 55.4799 19.0014 55.3734 19.179C55.2669 19.3565 55.2136 19.5613 55.2136 19.7933V23H53.9281ZM57.8929 23V17.5455H59.1784V23H57.8929ZM58.5392 16.7713C58.3356 16.7713 58.1605 16.7038 58.0137 16.5689C57.8669 16.4316 57.7935 16.267 57.7935 16.0753C57.7935 15.8812 57.8669 15.7166 58.0137 15.5817C58.1605 15.4444 58.3356 15.3757 58.5392 15.3757C58.7452 15.3757 58.9204 15.4444 59.0648 15.5817C59.2116 15.7166 59.285 15.8812 59.285 16.0753C59.285 16.267 59.2116 16.4316 59.0648 16.5689C58.9204 16.7038 58.7452 16.7713 58.5392 16.7713ZM64.8114 18.9872L63.6396 19.1151C63.6064 18.9967 63.5484 18.8854 63.4656 18.7812C63.3851 18.6771 63.2762 18.593 63.1388 18.5291C63.0015 18.4652 62.8335 18.4332 62.6346 18.4332C62.3671 18.4332 62.1422 18.4912 61.9599 18.6072C61.7799 18.7232 61.6912 18.8736 61.6935 19.0582C61.6912 19.2169 61.7492 19.3459 61.8675 19.4453C61.9883 19.5447 62.1871 19.6264 62.4641 19.6903L63.3945 19.8892C63.9106 20.0005 64.2942 20.1768 64.5451 20.4183C64.7984 20.6598 64.9263 20.9759 64.9286 21.3665C64.9263 21.7098 64.8256 22.0128 64.6268 22.2756C64.4303 22.536 64.1568 22.7396 63.8065 22.8864C63.4561 23.0331 63.0536 23.1065 62.5991 23.1065C61.9315 23.1065 61.3941 22.9669 60.9869 22.6875C60.5797 22.4058 60.337 22.014 60.2589 21.5121L61.5124 21.3913C61.5692 21.6375 61.69 21.8234 61.8746 21.9489C62.0593 22.0743 62.2996 22.1371 62.5955 22.1371C62.9009 22.1371 63.146 22.0743 63.3306 21.9489C63.5176 21.8234 63.6112 21.6683 63.6112 21.4837C63.6112 21.3274 63.5508 21.1984 63.43 21.0966C63.3117 20.9948 63.127 20.9167 62.8761 20.8622L61.9457 20.6669C61.4225 20.558 61.0354 20.3745 60.7844 20.1165C60.5335 19.8561 60.4092 19.527 60.4116 19.1293C60.4092 18.7931 60.5004 18.5019 60.685 18.2557C60.872 18.0071 61.1313 17.8153 61.4627 17.6804C61.7965 17.5431 62.1812 17.4744 62.6168 17.4744C63.256 17.4744 63.7591 17.6106 64.1261 17.8828C64.4954 18.1551 64.7238 18.5232 64.8114 18.9872ZM67.2741 19.804V23H65.9886V15.7273H67.2457V18.4723H67.3097C67.4375 18.1645 67.6352 17.9219 67.9027 17.7443C68.1726 17.5644 68.5159 17.4744 68.9325 17.4744C69.3113 17.4744 69.6416 17.5537 69.9233 17.7124C70.205 17.871 70.4228 18.103 70.5767 18.4084C70.733 18.7138 70.8111 19.0866 70.8111 19.527V23H69.5256V19.7259C69.5256 19.3589 69.4309 19.0736 69.2415 18.87C69.0545 18.6641 68.7917 18.5611 68.4531 18.5611C68.2259 18.5611 68.0223 18.6108 67.8423 18.7102C67.6648 18.8073 67.5251 18.9482 67.4233 19.1328C67.3239 19.3175 67.2741 19.5412 67.2741 19.804Z" fill="#0085FF"/>
<defs>
<clipPath id="clip0_44_19">
<rect width="26" height="26" fill="white"/>
</clipPath>
</defs>
</svg>
